# xmcd
#
# Track frame offsets:
#	150
#	20200
#	37025
#	56700
#	68550
#	77250
#	91600
#	111350
#	122650
#	136875
#	151875
#	164050
#	178675
#	192415
#
# Disc length: 2738 seconds
#
# Revision: 1
# Processed by: cddbd v1.5.2PL0 Copyright (c) Steve Scherf et al.
# Submitted via: audiograbber 1.83.01
#
DISCID=b90ab00e
DTITLE=Астрид ЖИЛЬБЕРТО - Нежная Босса-Нова
DYEAR=1900
DGENRE=Relax
TTITLE0=Far Away
TTITLE1=Peu Pia
TTITLE2=It Might as Well be Spring
TTITLE3=Corcovado
TTITLE4=The Telephone Song
TTITLE5=One Note Samba
TTITLE6=Only Trust Your Heart
TTITLE7=Voce E Eu
TTITLE8=We'll Make Today Last
TTITLE9=The Girl from Ipanema
TTITLE10=Waiting You
TTITLE11=Love for Sale
TTITLE12=Mame Eu Quero/Chika Chika Boom Chik
TTITLE13=The Puppy Song
EXTD=
EXTT0=
EXTT1=
EXTT2=
EXTT3=
EXTT4=
EXTT5=
EXTT6=
EXTT7=
EXTT8=
EXTT9=
EXTT10=
EXTT11=
EXTT12=
EXTT13=
PLAYORDER=
